<?xml version="1.0" encoding="utf-8"?>
<!-- Generator: Adobe Illustrator 27.0.0, SVG Export Plug-In . SVG Version: 6.00 Build 0)  -->
<svg version="1.1" id="top-rated" xmlns="http://www.w3.org/2000/svg" xmlns:xlink="http://www.w3.org/1999/xlink" x="0px" y="0px"
	 viewBox="0 0 64 64" style="enable-background:new 0 0 64 64;" xml:space="preserve">
<style type="text/css">
	.st0{fill:#5E6FB5;}
</style>
<path class="st0" d="M49.1,60.6c-0.8-0.1-1.6-0.5-2.2-1c-0.3-0.3-0.7-0.5-1.1-0.6c-0.4,0.1-0.8,0.4-1.1,0.6c-0.7,0.7-1.7,1-2.7,0.9
	c-0.3-0.1-0.6-0.3-0.9-0.5H13c-2.8,0-5-2.2-5-5V9c0-2.8,2.2-5,5-5h18.3c1.3,0,2.6,0.5,3.5,1.5l9.7,9.7c0.9,0.9,1.5,2.2,1.5,3.6V29
	c0,0.6-0.4,1-1,1s-1-0.4-1-1V18.7c0-0.8-0.3-1.6-0.9-2.1l-9.7-9.7C32.9,6.3,32.1,6,31.3,6H13c-1.7,0-3,1.3-3,3v46c0,1.7,1.3,3,3,3
	l0,0h27c-0.1-0.3-0.2-0.5-0.4-0.7c-0.4-0.1-0.8-0.1-1.2,0c-1,0.2-2,0-2.8-0.6C35,56,34.8,55,35,54c0.1-0.4,0.1-0.8,0-1.2
	c-0.3-0.2-0.6-0.4-1-0.6c-0.9-0.4-1.9-0.9-2.1-1.9c-0.1-1,0.2-1.9,0.9-2.7c0.3-0.3,0.5-0.7,0.6-1.1c-0.1-0.4-0.3-0.8-0.6-1.1
	c-0.7-0.7-1-1.7-0.9-2.7c0.3-1,1.3-1.5,2.2-1.9c0.4-0.2,0.7-0.4,1-0.6c0.1-0.4,0.1-0.9,0-1.3c-0.2-1,0-2,0.6-2.8
	c0.8-0.6,1.8-0.8,2.8-0.6c0.4,0.1,0.8,0.1,1.2,0c0.3-0.3,0.5-0.6,0.6-1c0.4-0.9,0.9-1.9,1.9-2.2c1-0.1,1.9,0.2,2.7,0.9
	c0.3,0.3,0.7,0.5,1.1,0.6c0.4-0.1,0.8-0.4,1.1-0.6c0.7-0.7,1.7-1,2.7-0.9c1,0.3,1.5,1.3,1.9,2.2c0.2,0.4,0.4,0.7,0.6,1
	c0.4,0.1,0.8,0.1,1.2,0c1-0.2,2,0,2.8,0.6c0.6,0.8,0.8,1.8,0.5,2.8c-0.1,0.4-0.1,0.8,0,1.2c0.3,0.2,0.6,0.4,1,0.6
	c0.9,0.4,1.9,0.9,2.1,1.9c0.1,1-0.2,1.9-0.9,2.7c-0.3,0.3-0.5,0.7-0.6,1.1c0.1,0.4,0.4,0.8,0.6,1.1c0.7,0.7,1,1.7,0.9,2.7
	c-0.3,1-1.3,1.5-2.1,1.9c-0.4,0.2-0.7,0.4-1,0.6c-0.1,0.4-0.1,0.8,0,1.2c0.2,1,0,2-0.6,2.8c-0.8,0.6-1.8,0.8-2.8,0.6
	c-0.4-0.1-0.8-0.1-1.2,0c-0.2,0.3-0.4,0.6-0.6,1c-0.4,0.9-0.9,1.9-1.9,2.2C49.4,60.5,49.2,60.5,49.1,60.6z M39.1,55.3
	c0.5,0,1,0.1,1.5,0.3c0.7,0.5,1.2,1.1,1.5,1.9c0.1,0.4,0.4,0.7,0.6,1.1c0.4-0.2,0.7-0.4,1-0.6c0.6-0.6,1.4-0.9,2.2-1
	c0.8,0.1,1.5,0.5,2.1,1c0.3,0.2,0.6,0.4,1,0.6c0.2-0.3,0.4-0.6,0.6-1c0.3-0.8,0.8-1.5,1.4-2c0.8-0.3,1.6-0.4,2.4-0.3
	c0.4,0.1,0.8,0.1,1.2,0c0-0.4,0-0.8,0-1.2c-0.2-0.8-0.1-1.6,0.3-2.4c0.5-0.7,1.2-1.1,1.9-1.4c0.4-0.1,0.7-0.4,1.1-0.6
	c-0.2-0.4-0.4-0.7-0.6-1c-0.6-0.6-0.9-1.4-1-2.2c0.1-0.8,0.4-1.6,1-2.2c0.2-0.3,0.4-0.6,0.6-1c-0.3-0.2-0.6-0.4-1-0.6
	c-0.8-0.3-1.4-0.8-1.9-1.4c-0.3-0.8-0.4-1.6-0.3-2.4c0.1-0.4,0.1-0.8,0-1.2c-0.4,0-0.8,0-1.2,0c-0.8,0.2-1.7,0.1-2.5-0.3
	c-0.7-0.5-1.1-1.2-1.4-1.9c-0.1-0.4-0.3-0.7-0.6-1.1c-0.4,0.2-0.7,0.4-1,0.6c-0.6,0.6-1.4,0.9-2.2,1c-0.8-0.1-1.6-0.4-2.2-1
	c-0.3-0.2-0.6-0.4-1-0.6c-0.2,0.3-0.4,0.6-0.6,1c-0.3,0.8-0.7,1.4-1.4,1.9c-0.8,0.3-1.6,0.4-2.4,0.3c-0.4-0.1-0.8-0.1-1.2,0
	c0,0.4,0,0.8,0,1.2c0.1,0.8,0.1,1.6-0.3,2.4c-0.5,0.7-1.2,1.1-1.9,1.4c-0.4,0.1-0.7,0.4-1.1,0.6c0.2,0.3,0.4,0.7,0.6,1
	c0.6,0.6,0.9,1.4,1,2.2c-0.1,0.8-0.4,1.6-1,2.2c-0.2,0.3-0.4,0.6-0.6,1c0.3,0.2,0.7,0.4,1,0.6c0.8,0.3,1.4,0.8,1.9,1.4
	c0.3,0.8,0.4,1.6,0.3,2.4c-0.1,0.4-0.1,0.8,0,1.2c0.4,0,0.8,0,1.2,0C38.5,55.3,38.8,55.3,39.1,55.3L39.1,55.3z M45.8,55
	c-4.7,0-8.5-3.8-8.5-8.5s3.8-8.5,8.5-8.5s8.5,3.8,8.5,8.5C54.3,51.2,50.5,55,45.8,55L45.8,55z M45.8,40c-3.6,0-6.5,2.9-6.5,6.5
	s2.9,6.5,6.5,6.5s6.5-2.9,6.5-6.5C52.3,42.9,49.4,40,45.8,40L45.8,40z M47.9,50.8c-0.3,0-0.5-0.1-0.8-0.2L45.9,50l-1.2,0.7
	c-0.8,0.4-1.8,0.1-2.2-0.7c-0.2-0.3-0.2-0.7-0.2-1l0.2-1.4l-1-1c-0.7-0.6-0.7-1.7,0-2.3c0.3-0.3,0.6-0.4,0.9-0.5l1.4-0.2l0.6-1.3
	l0,0c0.3-0.6,0.9-0.9,1.5-0.9l0,0c0.6,0,1.2,0.4,1.5,0.9l0.6,1.3l1.4,0.2c0.9,0.1,1.5,1,1.4,1.9c-0.1,0.4-0.2,0.7-0.5,0.9l-1,1
	l0.2,1.4c0.1,0.6-0.2,1.2-0.7,1.6C48.6,50.8,48.2,50.9,47.9,50.8L47.9,50.8z M43.3,45.6l0.6,0.6c0.4,0.4,0.6,0.9,0.5,1.5l-0.2,0.9
	l0.8-0.4c0.5-0.3,1.1-0.3,1.5,0l0.8,0.4l-0.2-0.9c-0.1-0.5,0.1-1.1,0.5-1.5l0.6-0.6l-0.9-0.1c-0.5-0.1-1-0.4-1.2-0.9l-0.4-0.8
	l-0.4,0.8c-0.2,0.5-0.7,0.8-1.2,0.9L43.3,45.6z M29,50H16c-0.6,0-1-0.4-1-1s0.4-1,1-1h13c0.6,0,1,0.4,1,1S29.6,50,29,50z M26,43H16
	c-0.6,0-1-0.4-1-1s0.4-1,1-1h10c0.6,0,1,0.4,1,1S26.6,43,26,43z M30,36H16c-0.6,0-1-0.4-1-1s0.4-1,1-1h14c0.6,0,1,0.4,1,1
	S30.6,36,30,36z M36,29H16c-0.6,0-1-0.4-1-1s0.4-1,1-1h20c0.6,0,1,0.4,1,1S36.6,29,36,29z M32,22H16c-0.6,0-1-0.4-1-1s0.4-1,1-1h16
	c0.6,0,1,0.4,1,1S32.6,22,32,22z M40,19h-4c-2.8,0-5-2.2-5-5v-4c0-0.6,0.4-1,1-1s1,0.4,1,1v4c0,1.7,1.3,3,3,3h4c0.6,0,1,0.4,1,1
	S40.6,19,40,19z M27,15H16c-0.6,0-1-0.4-1-1s0.4-1,1-1h11c0.6,0,1,0.4,1,1S27.6,15,27,15z"/>
</svg>
